<?xml version="1.0" encoding="UTF-8"?>
<svg version="1.1" xmlns="http://www.w3.org/2000/svg" width="1057" height="669">
<path d="M0 0 C348.81 0 697.62 0 1057 0 C1057 220.77 1057 441.54 1057 669 C708.19 669 359.38 669 0 669 C0 448.23 0 227.46 0 0 Z " fill="#62895B" transform="translate(0,0)"/>
<path d="M0 0 C33.86637562 -0.68085646 67.66783261 1.80735796 99.33325195 14.99279785 C102.20666561 16.16749128 105.11472941 17.22326377 108.02856445 18.2935791 C135.60873336 28.89136433 159.33868737 46.32241855 181.90356445 65.0435791 C180.62278129 68.4486246 179.15089338 71.48346536 177.2434082 74.57873535 C176.70578857 75.45602295 176.16816895 76.33331055 175.61425781 77.23718262 C174.7365271 78.65728638 174.7365271 78.65728638 173.84106445 80.1060791 C172.56999057 82.17884828 171.29916844 84.25177185 170.02856445 86.3248291 C169.35696289 87.4179541 168.68536133 88.5110791 167.9934082 89.6373291 C164.42677673 95.45060507 160.88208123 101.27717454 157.34106445 107.1060791 C156.98335968 107.69470734 156.62565491 108.28333557 156.2571106 108.88980103 C146.97220274 124.17536444 137.87849276 139.57406631 128.90356445 155.0435791 C126.90356445 153.6685791 126.90356445 153.6685791 124.90356445 152.0435791 C124.90356445 151.3835791 124.90356445 150.7235791 124.90356445 150.0435791 C123.91356445 149.7135791 122.92356445 149.3835791 121.90356445 149.0435791 C120.46606445 147.5123291 120.46606445 147.5123291 118.90356445 145.5435791 C105.65265882 129.99178399 85.79597771 118.30366363 66.90356445 111.0435791 C65.85942383 110.63172363 65.85942383 110.63172363 64.79418945 110.21154785 C62.8407401 109.45680606 60.87740502 108.74326139 58.90356445 108.0435791 C58.04762695 107.73678223 57.19168945 107.42998535 56.30981445 107.1138916 C50.46563984 105.08728266 44.58545776 103.367884 38.59106445 101.8560791 C37.93364258 101.68922607 37.2762207 101.52237305 36.59887695 101.35046387 C27.35664829 99.08074988 18.43046362 98.8410421 8.96606445 98.8560791 C8.27037354 98.85668335 7.57468262 98.8572876 6.85791016 98.85791016 C-8.72444808 98.89475851 -23.11843366 100.41967015 -38.09643555 105.0435791 C-39.45164307 105.45785156 -39.45164307 105.45785156 -40.83422852 105.88049316 C-68.13029678 114.32405307 -93.64386234 127.25213696 -113.3894043 148.4263916 C-115.09643555 150.0435791 -115.09643555 150.0435791 -117.09643555 150.0435791 C-117.35682617 150.62752441 -117.6172168 151.21146973 -117.88549805 151.81311035 C-119.17710614 154.19216914 -120.59770394 155.78224011 -122.47143555 157.7310791 C-132.83240699 169.22233834 -140.67388279 182.02931956 -147.09643555 196.0435791 C-147.5037793 196.88275879 -147.91112305 197.72193848 -148.33081055 198.58654785 C-151.29326859 204.84189194 -153.15730437 211.41445624 -155.09643555 218.0435791 C-155.44963867 219.15990723 -155.8028418 220.27623535 -156.16674805 221.4263916 C-158.88976206 230.28122975 -160.22925867 238.86063237 -161.09643555 248.0435791 C-161.2646582 249.77221191 -161.2646582 249.77221191 -161.4362793 251.5357666 C-162.66215984 266.07840424 -162.84969431 280.66752403 -160.09643555 295.0435791 C-159.84579346 296.37123291 -159.84579346 296.37123291 -159.59008789 297.72570801 C-150.90702873 341.93639855 -125.89706655 380.67197611 -88.6472168 406.0748291 C-78.0860955 413.0805177 -67.19550549 419.17705675 -55.09643555 423.0435791 C-53.83702581 423.51853184 -52.57937248 423.9981544 -51.32299805 424.4810791 C-47.13320668 426.06289914 -42.90321219 427.38273842 -38.59643555 428.6060791 C-37.90807617 428.8142627 -37.2197168 429.02244629 -36.51049805 429.23693848 C-23.0887392 433.04613872 -9.19629807 433.41992201 4.65356445 433.3560791 C5.43672028 433.35492096 6.2198761 433.35376282 7.02676392 433.35256958 C21.65867007 433.30988488 35.84398036 432.61299719 49.77148438 427.78210449 C51.62179936 427.14117894 53.49002097 426.55240499 55.3605957 425.9732666 C87.72835643 415.79946521 116.06481799 397.33983778 139.90356445 373.3560791 C140.38356903 372.87425171 140.86357361 372.39242432 141.35812378 371.89599609 C148.30992398 364.89985988 154.87771246 357.81486724 160.63305664 349.79699707 C162.0173519 347.88654193 163.4461804 346.01467603 164.88012695 344.14123535 C174.69721052 331.14243773 182.82223394 317.15545579 190.90356445 303.0435791 C191.3948584 302.18699707 191.88615234 301.33041504 192.39233398 300.44787598 C198.12150277 290.40971485 203.49186325 280.18808845 208.79516602 269.91955566 C212.80224941 262.16819285 212.80224941 262.16819285 215.00512695 258.49279785 C216.46990262 255.83148733 217.5999495 253.407745 218.6887207 250.5982666 C221.52449506 243.28343007 224.97564333 236.24990377 228.34106445 229.1685791 C229.77870343 226.1328017 231.21425478 223.09603906 232.6496582 220.0592041 C233.00901459 219.29957367 233.36837097 218.53994324 233.73861694 217.7572937 C236.61224806 211.6768981 239.44466127 205.57813724 242.26318359 199.4720459 C246.94660696 189.32660356 251.6423071 179.20213128 256.76049805 169.2677002 C257.61967946 167.59594823 258.47322383 165.92129726 259.32397461 164.24523926 C272.3597904 138.56740217 286.6708006 113.63390756 305.90356445 92.0435791 C307.11231695 90.64810874 308.3207039 89.25232157 309.52856445 87.8560791 C310.07641602 87.2373291 310.62426758 86.6185791 311.1887207 85.9810791 C312.41571442 84.59477185 313.63053368 83.19765127 314.8371582 81.7935791 C324.80461239 70.38130128 336.10518831 60.41769067 348.2019043 51.32580566 C349.81786923 50.10815174 351.41785983 48.86938269 353.0168457 47.6295166 C372.88830146 32.73199055 395.98752096 20.79167436 419.90356445 14.0435791 C421.49048067 13.53376665 423.07421524 13.01387161 424.65356445 12.4810791 C425.31630371 12.25766846 425.97904297 12.03425781 426.66186523 11.80407715 C428.08782078 11.32032072 429.51196587 10.83116908 430.93359375 10.33483887 C436.54626358 8.40367457 442.18438749 6.8781434 447.96606445 5.5435791 C448.77366211 5.34377441 449.58125977 5.14396973 450.41333008 4.93811035 C468.56466558 0.7380224 487.085933 -0.46132686 505.66040039 -0.34753418 C508.79918094 -0.33131436 511.93669494 -0.34758102 515.07543945 -0.36657715 C527.3574692 -0.37859955 538.86454649 0.69078408 550.90356445 3.0435791 C552.62633804 3.29558371 554.351309 3.53376213 556.0793457 3.7467041 C572.47562657 5.86715986 587.837736 11.33919021 602.90356445 18.0435791 C604.36017854 18.66955072 605.81724805 19.29446317 607.2746582 19.9185791 C614.76332135 23.15302446 621.98149054 26.42199878 628.88012695 30.81311035 C631.09024399 32.2251454 631.09024399 32.2251454 634.46606445 33.5435791 C638.14947663 35.15088623 641.1885184 37.12758417 644.4855957 39.4029541 C646.89282967 41.0362954 649.35397914 42.53533135 651.84106445 44.0435791 C663.82555842 51.65171291 674.91301456 60.79030452 685.2277832 70.5201416 C687.84144238 72.98499391 690.5173513 75.36009573 693.21606445 77.7310791 C697.48598548 81.57264818 701.25027936 85.61904493 704.90356445 90.0435791 C705.56614258 90.81830566 706.2287207 91.59303223 706.91137695 92.39123535 C724.15802359 112.88321872 740.401397 137.27951803 748.82543945 162.8482666 C749.89402929 166.01531908 751.13725917 169.04022114 752.46606445 172.1060791 C758.44441662 186.2673008 762.44605292 201.73970801 763.90356445 217.0435791 C764.40030717 219.01085812 764.89763324 220.97799895 765.40179443 222.94338989 C768.80650521 237.1940158 768.30135464 252.31367732 768.27856445 266.8560791 C768.27901764 267.98065521 768.27947083 269.10523132 768.27993774 270.2638855 C768.25949173 287.54630374 767.3850248 304.07590469 763.90356445 321.0435791 C763.61467121 322.56549992 763.3268106 324.08761735 763.0402832 325.60998535 C761.98055659 330.90861844 760.64374563 335.92930617 758.90356445 341.0435791 C758.31512437 342.9586841 757.73204975 344.87544364 757.15356445 346.7935791 C749.39662441 371.99642519 749.39662441 371.99642519 743.90356445 383.0435791 C743.28889919 384.29874732 742.67432254 385.55395893 742.05981445 386.8092041 C738.87044242 393.28280516 735.58551935 399.69519902 732.15356445 406.0435791 C731.58766602 407.0954541 731.02176758 408.1473291 730.4387207 409.2310791 C729.53308092 410.89026649 728.61028091 412.5406079 727.6496582 414.1685791 C725.32456985 418.28681678 724.67124571 421.63218578 724.21606445 426.3560791 C723.15115101 434.26556444 719.28640896 438.4100053 713.90356445 444.0435791 C712.95367563 445.09140143 712.00715622 446.14228637 711.0637207 447.19592285 C701.05081855 458.31361676 690.71273176 468.8222737 678.90356445 478.0435791 C677.94321289 478.82088379 676.98286133 479.59818848 675.9934082 480.39904785 C649.35692927 501.58026814 618.59770353 516.0556345 585.90356445 525.0435791 C584.77047852 525.37100098 583.63739258 525.69842285 582.4699707 526.0357666 C568.78628429 529.90256955 555.02019375 532.38431551 540.90356445 534.0435791 C540.07236084 534.14146729 539.24115723 534.23935547 538.38476562 534.34020996 C530.25644832 535.18995758 522.12974956 535.24153063 513.96606445 535.2310791 C513.24045319 535.23113953 512.51484192 535.23119995 511.76724243 535.23126221 C500.05128922 535.21739851 488.51147578 534.70396999 476.90356445 533.0435791 C475.85813477 532.8992041 474.81270508 532.7548291 473.7355957 532.6060791 C470.77653135 532.14895468 467.84459789 531.6051473 464.90356445 531.0435791 C463.49605257 530.79855637 462.08849672 530.55378619 460.6809082 530.3092041 C397.33547091 518.88958786 342.26898198 486.55023232 297.15356445 441.4810791 C296.56963928 440.89824158 295.98571411 440.31540405 295.38409424 439.71490479 C293.70463283 438.03508867 292.02965915 436.35095224 290.35668945 434.66467285 C289.85106476 434.15783463 289.34544006 433.6509964 288.82449341 433.12879944 C281.89914584 426.11141013 281.89914584 426.11141013 281.9152832 422.21154785 C283.13631993 418.29747359 285.20578046 415.51921768 287.71606445 412.3560791 C300.02128661 396.18789541 310.9431133 378.28100509 319.90356445 360.0435791 C320.56356445 360.0435791 321.22356445 360.0435791 321.90356445 360.0435791 C322.00668945 359.3217041 322.10981445 358.5998291 322.21606445 357.8560791 C322.97884761 354.73560255 324.25034244 352.79894912 325.90356445 350.0435791 C326.4656798 348.67681134 327.0041515 347.30025158 327.52856445 345.9185791 C330.82104124 337.41517448 334.95307924 329.25563126 338.90356445 321.0435791 C342.52973514 322.25230266 342.93958592 323.56770729 344.60424805 326.85461426 C344.92989746 327.51509766 345.25554688 328.17558105 345.59106445 328.8560791 C354.47431191 346.13430313 366.53235028 362.00144472 380.46606445 375.5435791 C382.90356445 378.0435791 382.90356445 378.0435791 382.90356445 380.0435791 C383.46688477 380.28334473 384.03020508 380.52311035 384.6105957 380.7701416 C387.38615593 382.31159413 389.31117404 384.2066917 391.59106445 386.4185791 C413.09101779 406.47390067 441.05098711 420.93695006 469.40356445 428.1685791 C470.35875977 428.41994629 471.31395508 428.67131348 472.2980957 428.93029785 C484.29157411 432.0301008 495.63551317 433.491076 508.02856445 433.4810791 C509.14639313 433.48068634 509.14639313 433.48068634 510.2868042 433.48028564 C553.87397282 433.30007249 592.25300054 413.24136599 622.59082031 382.65661621 C643.68313843 360.78815114 656.06739525 333.40689944 663.33813477 304.25695801 C663.85020498 302.25245518 664.41678591 300.26207296 664.98950195 298.27404785 C670.91621559 274.34713468 668.54451271 243.34176869 660.90356445 220.0435791 C660.56711914 218.83057129 660.23067383 217.61756348 659.8840332 216.36779785 C654.9830914 198.82206945 646.6093751 182.7232415 635.90356445 168.0435791 C635.28739258 167.19666504 634.6712207 166.34975098 634.03637695 165.47717285 C629.67352707 159.69689939 624.84251294 154.33411375 619.90356445 149.0435791 C619.20489258 148.2907666 618.5062207 147.5379541 617.78637695 146.7623291 C601.0412251 129.34246417 579.87481102 118.38635885 557.90356445 109.0435791 C557.90356445 108.3835791 557.90356445 107.7235791 557.90356445 107.0435791 C556.57165927 106.58111202 555.23793376 106.12388755 553.90356445 105.6685791 C553.16106445 105.41334473 552.41856445 105.15811035 551.65356445 104.8951416 C545.09193425 102.86327316 538.78080565 101.66433563 531.96606445 100.9810791 C524.03383131 100.17384596 524.03383131 100.17384596 522.90356445 99.0435791 C498.86186658 97.30410085 473.16767751 99.39993124 450.90356445 109.0435791 C449.70989258 109.53729004 448.5162207 110.03100098 447.28637695 110.53967285 C425.68016024 119.58108473 405.34430828 132.21324419 388.90356445 149.0435791 C387.8052832 150.16312988 387.8052832 150.16312988 386.68481445 151.30529785 C374.21115923 164.56923603 363.0389421 180.15951149 355.15356445 196.57873535 C353.84312942 199.16274943 352.37457311 201.58613148 350.84106445 204.0435791 C348.349421 208.10521218 346.57303562 212.15921804 344.8996582 216.60998535 C343.89905453 219.05459745 342.7248782 221.25838907 341.40356445 223.5435791 C339.11171001 227.50862789 337.44410846 231.5588881 335.8059082 235.82873535 C334.75287394 238.41345581 333.37515958 240.67623042 331.90356445 243.0435791 C330.47981801 246.21465073 329.1597725 249.41444601 327.84887695 252.63342285 C325.25624116 258.94555902 322.48649965 265.15047149 319.56738281 271.3170166 C317.50908942 275.68536528 315.58752191 280.09177879 313.71606445 284.5435791 C311.7128229 289.27996672 309.5178987 293.62625572 306.90356445 298.0435791 C306.22236833 299.63587505 305.54253372 301.22876741 304.86962891 302.82458496 C302.73580033 307.7258657 300.39536399 312.53332581 298.09106445 317.3560791 C297.5825293 318.43309082 297.07399414 319.51010254 296.55004883 320.61975098 C293.70326334 326.57671274 290.66310284 332.28450626 287.20068359 337.90563965 C285.64782303 340.46509757 284.31557538 343.09165554 283.02856445 345.7935791 C268.04338137 376.1876908 248.24336698 405.97464231 225.05981445 430.7388916 C223.13439121 432.7968621 221.29260778 434.89825227 219.46606445 437.0435791 C213.14434737 444.30460792 206.21636817 451.09796157 198.8840332 457.3326416 C197.52649153 458.50542908 196.19658156 459.71075131 194.8918457 460.9420166 C180.74192708 474.22762955 164.47396496 485.04290612 147.90356445 495.0435791 C146.79368164 495.72033691 145.68379883 496.39709473 144.5402832 497.09436035 C134.61255403 503.02469924 124.40502101 508.47747162 113.40356445 512.1217041 C110.44403451 513.21303077 107.71589593 514.61745488 104.90356445 516.0435791 C94.22212244 520.83510525 82.98711994 523.55860361 71.65991211 526.35900879 C69.24068605 526.95985112 66.82757114 527.57968791 64.4152832 528.2076416 C11.29141196 541.7383048 -48.5802148 536.95585063 -99.09643555 516.0435791 C-100.02552734 515.67273193 -100.95461914 515.30188477 -101.91186523 514.9197998 C-109.74175174 511.75256031 -117.23159511 508.06566312 -124.72143555 504.1685791 C-125.8712793 503.58205566 -127.02112305 502.99553223 -128.20581055 502.39123535 C-135.24450758 498.74361901 -141.71200713 494.73341949 -148.09643555 490.0435791 C-149.27585671 489.22303143 -150.45785505 488.40616576 -151.64331055 487.59436035 C-160.26331772 481.57086753 -168.24190939 475.02923152 -176.09643555 468.0435791 C-176.61447754 467.58870117 -177.13251953 467.13382324 -177.66625977 466.66516113 C-194.90981452 451.50434861 -208.71810341 434.29644602 -221.09643555 415.0435791 C-221.78608398 413.97365723 -222.47573242 412.90373535 -223.1862793 411.8013916 C-230.88561864 399.57392595 -237.62541296 387.00387468 -242.76831055 373.4967041 C-243.94656188 370.43325064 -245.24662896 367.47115698 -246.59643555 364.4810791 C-250.0838009 356.17195459 -252.16335982 347.39027795 -254.41186523 338.68371582 C-255.01355803 336.3632073 -255.63277412 334.04854929 -256.26049805 331.73498535 C-260.64107453 315.31494148 -263.18028867 298.31426153 -263.3347168 281.31311035 C-263.34451065 280.41238297 -263.3543045 279.51165558 -263.36439514 278.58363342 C-263.54989104 257.059992 -262.98168796 236.27402732 -259.09643555 215.0435791 C-258.78295166 213.310354 -258.78295166 213.310354 -258.46313477 211.54211426 C-251.02561662 171.84749494 -234.83667912 133.37755052 -209.09643555 102.0435791 C-208.46995117 101.22760254 -207.8434668 100.41162598 -207.19799805 99.57092285 C-201.04187892 91.5835531 -194.06641148 84.31780852 -187.09643555 77.0435791 C-186.61223145 76.52875977 -186.12802734 76.01394043 -185.62915039 75.48352051 C-184.49093716 74.2977949 -183.2985068 73.16451588 -182.09643555 72.0435791 C-181.43643555 72.0435791 -180.77643555 72.0435791 -180.09643555 72.0435791 C-180.09643555 71.3835791 -180.09643555 70.7235791 -180.09643555 70.0435791 C-178.54755053 68.62651409 -176.92882021 67.28548414 -175.28393555 65.9810791 C-170.82957868 62.43327404 -170.82957868 62.43327404 -166.4440918 58.8013916 C-150.11669195 45.0028973 -131.326989 34.23667024 -112.09643555 25.0435791 C-111.1425293 24.58209473 -110.18862305 24.12061035 -109.20581055 23.6451416 C-97.44949906 18.11897123 -85.28547781 13.97700821 -72.84643555 10.2935791 C-71.86521729 9.99983398 -70.88399902 9.70608887 -69.87304688 9.40344238 C-63.78955808 7.6429014 -57.7702989 6.38549879 -51.50366211 5.46447754 C-49.09361905 5.16153702 -49.09361905 5.16153702 -47.09643555 4.0435791 C-45.76734566 3.86312078 -44.43261512 3.72299481 -43.09643555 3.6060791 C-39.82698972 3.2846725 -36.70139965 2.77185153 -33.4987793 2.04748535 C-27.88310221 0.90623485 -22.37747839 0.59010379 -16.65893555 0.4185791 C-15.55638428 0.38280762 -14.45383301 0.34703613 -13.31787109 0.31018066 C-8.87897954 0.18195077 -4.43974868 0.09229011 0 0 Z " fill="#020302" transform="translate(275.096435546875,112.9564208984375)"/>
<path d="M0 0 C32.34 0 64.68 0 98 0 C98.44180035 29.12758485 98.44180035 29.12758485 98.55279255 43.54271412 C98.61369009 51.33123074 98.69092533 59.11844788 98.82983398 66.90600586 C98.95156239 73.73367655 99.01516255 80.55994032 99.04364967 87.38862801 C99.06394439 89.99108065 99.10357803 92.59345798 99.16303062 95.19531059 C99.63485608 116.70330479 99.63485608 116.70330479 95.60702515 121.53344727 C92.82388613 123.83123655 90.22228734 125.40658855 87 127 C84.95020473 128.64712558 84.95020473 128.64712558 83.328125 130.2578125 C82.5549292 130.97275879 82.5549292 130.97275879 81.76611328 131.70214844 C81.2657959 132.17168945 80.76547852 132.64123047 80.25 133.125 C79.7019873 133.63579102 79.15397461 134.14658203 78.58935547 134.67285156 C53.76650472 157.89589281 34.54316293 185.44899933 18 215 C17.36940674 216.12027588 17.36940674 216.12027588 16.72607422 217.26318359 C10.63973582 228.13594196 5.57152599 239.41584191 1 251 C0.67 251 0.34 251 0 251 C0 168.17 0 85.34 0 0 Z " fill="#020302" transform="translate(497,23)"/>
<path d="M0 0 C6.21871178 0.63781659 12.75755282 2.55369398 17.0625 7.25 C17.5265625 8.11625 17.5265625 8.11625 18 9 C15.03 8.01 12.06 7.02 9 6 C9 5.34 9 4.68 9 4 C6.03 3.01 3.06 2.02 0 1 C0 0.67 0 0.34 0 0 Z " fill="#2B3829" transform="translate(824,216)"/>
<path d="M0 0 C1.47008223 2.94016445 0.76569893 5.1482236 0.3125 8.375 C0.16425781 9.51710938 0.01601563 10.65921875 -0.13671875 11.8359375 C-1.09365444 15.34325834 -2.23495106 16.71362552 -5 19 C-4.74340689 16.76914933 -4.46912686 14.54032877 -4.1875 12.3125 C-4.03667969 11.07113281 -3.88585937 9.82976563 -3.73046875 8.55078125 C-3.01333526 5.06482218 -2.01965188 2.89391214 0 0 Z " fill="#263022" transform="translate(999,531)"/>
<path d="M0 0 C0.66 0.66 1.32 1.32 2 2 C-1.3 5.3 -4.6 8.6 -8 12 C-8.66 11.67 -9.32 11.34 -10 11 C-9.52949219 10.54109375 -9.05898438 10.0821875 -8.57421875 9.609375 C-3.96631602 5.08450705 -3.96631602 5.08450705 0 0 Z " fill="#0F170C" transform="translate(429,471)"/>
<path d="M0 0 C1.32 0.33 2.64 0.66 4 1 C2.515 4.465 2.515 4.465 1 8 C0.67 8 0.34 8 0 8 C0 5.36 0 2.72 0 0 Z " fill="#0E150A" transform="translate(498,263)"/>
</svg>
